<svg xmlns="http://www.w3.org/2000/svg" fill="#ffffff" class="bi bi-chat-square-text" viewBox="0 0 16 16" id="Chat-Square-Text--Streamline-Bootstrap" height="16" width="16"><desc>Chat Square Text Streamline Icon: https://streamlinehq.com</desc><path d="M14 1a1 1 0 0 1 1 1v8a1 1 0 0 1 -1 1h-2.5a2 2 0 0 0 -1.6 0.8L8 14.333 6.1 11.8a2 2 0 0 0 -1.6 -0.8H2a1 1 0 0 1 -1 -1V2a1 1 0 0 1 1 -1zM2 0a2 2 0 0 0 -2 2v8a2 2 0 0 0 2 2h2.5a1 1 0 0 1 0.8 0.4l1.9 2.533a1 1 0 0 0 1.6 0l1.9 -2.533a1 1 0 0 1 0.8 -0.4H14a2 2 0 0 0 2 -2V2a2 2 0 0 0 -2 -2z" stroke-width="1"></path><path d="M3 3.5a0.5 0.5 0 0 1 0.5 -0.5h9a0.5 0.5 0 0 1 0 1h-9a0.5 0.5 0 0 1 -0.5 -0.5M3 6a0.5 0.5 0 0 1 0.5 -0.5h9a0.5 0.5 0 0 1 0 1h-9A0.5 0.5 0 0 1 3 6m0 2.5a0.5 0.5 0 0 1 0.5 -0.5h5a0.5 0.5 0 0 1 0 1h-5a0.5 0.5 0 0 1 -0.5 -0.5" stroke-width="1"></path></svg>